<svg width="243" height="43" viewBox="0 0 243 43" fill="none" xmlns="http://www.w3.org/2000/svg">
<path fill-rule="evenodd" clip-rule="evenodd" d="M21.2097 1.19995C32.4715 1.19995 41.601 10.3294 41.601 21.5913C41.601 32.8532 32.4715 41.9827 21.2097 41.9827C9.94785 41.9827 0.818359 32.8532 0.818359 21.5913C0.818359 10.3294 9.94785 1.19995 21.2097 1.19995ZM40.8183 21.5913C40.8183 10.7617 32.0392 1.98257 21.2097 1.98257C20.3361 1.98257 19.476 2.03969 18.6326 2.1504C19.1775 2.10276 19.7289 2.07844 20.2861 2.07844C30.6343 2.07844 39.0232 10.4673 39.0232 20.8156C39.0232 31.1637 30.6343 39.5526 20.2861 39.5526C10.4891 39.5526 2.44835 32.0337 1.61952 22.4516C2.06977 32.882 10.6683 41.2 21.2097 41.2C32.0392 41.2 40.8183 32.4209 40.8183 21.5913ZM38.2405 20.8156C38.2405 10.8995 30.2021 2.86107 20.2861 2.86107C19.481 2.86107 18.6882 2.91407 17.9111 3.01676C18.3896 2.9765 18.8737 2.95596 19.3626 2.95596C28.7972 2.95596 36.4454 10.6042 36.4454 20.0388C36.4454 29.4734 28.7972 37.1216 19.3626 37.1216C10.4419 37.1216 3.11838 30.2839 2.34701 21.5637C2.7392 31.1327 10.6208 38.77 20.2861 38.77C30.2021 38.77 38.2405 30.7315 38.2405 20.8156ZM19.3626 3.73859C28.3649 3.73859 35.6628 11.0365 35.6628 20.0388C35.6628 29.0411 28.3649 36.3389 19.3626 36.3389C10.5689 36.3389 3.40153 29.3753 3.07418 20.6616C3.78093 28.5266 10.3902 34.6905 18.4392 34.6905C26.9595 34.6905 33.8667 27.7834 33.8667 19.263C33.8667 10.7425 26.9595 3.83543 18.4392 3.83543C17.9984 3.83543 17.5619 3.85392 17.1305 3.89015C17.8603 3.79022 18.6054 3.73859 19.3626 3.73859ZM33.084 19.263C33.084 11.1749 26.5273 4.61806 18.4392 4.61806C17.7558 4.61806 17.0833 4.66486 16.4249 4.75544C16.7844 4.7273 17.1478 4.71297 17.5146 4.71297C25.1214 4.71297 31.2879 10.8794 31.2879 18.4863C31.2879 26.093 25.1214 32.2595 17.5146 32.2595C10.3549 32.2595 4.47127 26.7966 3.80436 19.8117C4.09289 27.6456 10.5347 33.9079 18.4392 33.9079C26.5273 33.9079 33.084 27.3512 33.084 19.263ZM17.5146 5.49559C24.6891 5.49559 30.5052 11.3118 30.5052 18.4863C30.5052 25.6608 24.6891 31.4769 17.5146 31.4769C10.4814 31.4769 4.75371 25.8877 4.53077 18.9087C5.1329 25.0389 10.3026 29.8285 16.5911 29.8285C23.2843 29.8285 28.7101 24.4026 28.7101 17.7095C28.7101 11.0164 23.2843 5.59048 16.5911 5.59048C16.2842 5.59048 15.9799 5.60189 15.6787 5.62431C16.2785 5.53947 16.8914 5.49559 17.5146 5.49559ZM27.9275 17.7095C27.9275 11.4486 22.852 6.37311 16.5911 6.37311C16.0196 6.37311 15.458 6.4154 14.9092 6.49702C15.1597 6.47908 15.4126 6.46995 15.6677 6.46995C21.4466 6.46995 26.1314 11.1548 26.1314 16.9337C26.1314 22.7127 21.4466 27.3974 15.6677 27.3974C10.2524 27.3974 5.79808 23.2839 5.25875 18.0111C5.41864 24.1326 10.4311 29.0459 16.5911 29.0459C22.852 29.0459 27.9275 23.9704 27.9275 17.7095ZM15.6677 7.25258C21.0144 7.25258 25.3487 11.587 25.3487 16.9337C25.3487 22.2805 21.0144 26.6148 15.6677 26.6148C10.3889 26.6148 6.09707 22.3901 5.98868 17.1374C6.47631 21.5413 10.2102 24.9664 14.7442 24.9664C19.6095 24.9664 23.5536 21.0223 23.5536 16.157C23.5536 11.2917 19.6095 7.34747 14.7442 7.34747C14.5581 7.34747 14.3734 7.35324 14.1902 7.36461C14.6719 7.29084 15.1653 7.25258 15.6677 7.25258ZM22.771 16.157C22.771 11.7239 19.1773 8.1301 14.7442 8.1301C14.299 8.1301 13.8623 8.16634 13.4368 8.23603C13.5636 8.22935 13.6912 8.22597 13.8197 8.22597C17.7713 8.22597 20.9748 11.4295 20.9748 15.3812C20.9748 19.3329 17.7713 22.5364 13.8197 22.5364C10.1657 22.5364 7.15151 19.7974 6.71803 16.2606C6.77353 20.646 10.3457 24.1838 14.7442 24.1838C19.1773 24.1838 22.771 20.5901 22.771 16.157ZM13.8197 9.00859C17.3391 9.00859 20.1922 11.8617 20.1922 15.3812C20.1922 18.9007 17.3391 21.7537 13.8197 21.7537C10.3002 21.7537 7.44714 18.9007 7.44714 15.3812C7.44714 15.3728 7.44716 15.3643 7.44719 15.3559C7.81361 18.0379 10.1135 20.1044 12.8962 20.1044C15.9337 20.1044 18.3961 17.642 18.3961 14.6045C18.3961 11.5669 15.9337 9.10448 12.8962 9.10448C12.8275 9.10448 12.7591 9.10573 12.691 9.10823C13.0573 9.04276 13.4345 9.00859 13.8197 9.00859ZM17.6134 14.6045C17.6134 11.9992 15.5015 9.8871 12.8962 9.8871C10.2909 9.8871 8.17891 11.9992 8.17891 14.6045C8.17891 17.2097 10.2909 19.3217 12.8962 19.3217C15.5015 19.3217 17.6134 17.2097 17.6134 14.6045Z" fill="white"/>
<path d="M60.9305 34H56.3105V9.50001H66.3905C67.9305 9.50001 69.2905 9.81001 70.4705 10.43C71.6505 11.0433 72.5705 11.91 73.2305 13.03C73.8972 14.15 74.2305 15.48 74.2305 17.02V17.51C74.2305 19.03 73.8872 20.3567 73.2005 21.49C72.5139 22.6167 71.5805 23.49 70.4005 24.11C69.2205 24.73 67.8839 25.04 66.3905 25.04H60.9305V34ZM60.9305 13.7V20.84H65.9405C67.0339 20.84 67.9172 20.5367 68.5905 19.93C69.2705 19.3233 69.6105 18.4933 69.6105 17.44V17.09C69.6105 16.0433 69.2705 15.2167 68.5905 14.61C67.9172 14.0033 67.0339 13.7 65.9405 13.7H60.9305ZM82.6305 34.49C81.3905 34.49 80.2805 34.2733 79.3005 33.84C78.3272 33.4133 77.5539 32.7833 76.9805 31.95C76.4072 31.1233 76.1205 30.1167 76.1205 28.93C76.1205 27.7367 76.4072 26.7367 76.9805 25.93C77.5539 25.1233 78.3472 24.5167 79.3605 24.11C80.3739 23.7033 81.5339 23.5 82.8405 23.5H87.6005V22.52C87.6005 21.7 87.3439 21.03 86.8305 20.51C86.3172 19.9833 85.5005 19.72 84.3805 19.72C83.2805 19.72 82.4639 19.97 81.9305 20.47C81.3972 20.97 81.0472 21.6167 80.8805 22.41L76.8205 21.05C77.1005 20.1633 77.5505 19.3533 78.1705 18.62C78.7839 17.88 79.6105 17.2833 80.6505 16.83C81.6905 16.3767 82.9572 16.15 84.4505 16.15C86.7372 16.15 88.5472 16.72 89.8805 17.86C91.2072 19.0067 91.8705 20.6633 91.8705 22.83V29.31C91.8705 30.01 92.1972 30.36 92.8505 30.36H94.2505V34H91.3105C90.4505 34 89.7372 33.79 89.1705 33.37C88.6172 32.95 88.3405 32.39 88.3405 31.69V31.66H87.6705C87.5772 31.9333 87.3672 32.3 87.0405 32.76C86.7139 33.2133 86.2005 33.6133 85.5005 33.96C84.8005 34.3133 83.8439 34.49 82.6305 34.49ZM83.4005 30.92C84.6405 30.92 85.6505 30.5767 86.4305 29.89C87.2105 29.2033 87.6005 28.2867 87.6005 27.14V26.79H83.1605C82.3405 26.79 81.6972 26.9633 81.2305 27.31C80.7639 27.6633 80.5305 28.1567 80.5305 28.79C80.5305 29.4167 80.7772 29.9267 81.2705 30.32C81.7572 30.72 82.4672 30.92 83.4005 30.92ZM101.881 34H97.4705V9.50001H101.881V34ZM111.191 34H106.781V16.64H111.191V34ZM108.981 14.61C108.194 14.61 107.524 14.3533 106.971 13.84C106.424 13.3267 106.151 12.65 106.151 11.81C106.151 10.97 106.424 10.2933 106.971 9.78001C107.524 9.26668 108.194 9.01001 108.981 9.01001C109.801 9.01001 110.481 9.26668 111.021 9.78001C111.554 10.2933 111.821 10.97 111.821 11.81C111.821 12.65 111.554 13.3267 111.021 13.84C110.481 14.3533 109.801 14.61 108.981 14.61ZM120.501 34H116.091V16.64H120.431V18.91H121.061C121.341 18.3033 121.867 17.7267 122.641 17.18C123.407 16.6333 124.574 16.36 126.141 16.36C127.494 16.36 128.677 16.67 129.691 17.29C130.704 17.9033 131.491 18.7533 132.051 19.84C132.611 20.9267 132.891 22.1933 132.891 23.64V34H128.481V23.99C128.481 22.6833 128.161 21.7033 127.521 21.05C126.881 20.3967 125.964 20.07 124.771 20.07C123.417 20.07 122.367 20.52 121.621 21.42C120.874 22.3133 120.501 23.5667 120.501 25.18V34ZM144.651 34.49C143.277 34.49 141.987 34.1467 140.781 33.46C139.581 32.7733 138.621 31.7633 137.901 30.43C137.174 29.0967 136.811 27.4867 136.811 25.6V25.04C136.811 23.1467 137.174 21.5367 137.901 20.21C138.621 18.8767 139.577 17.8667 140.771 17.18C141.957 16.4933 143.251 16.15 144.651 16.15C145.704 16.15 146.584 16.2733 147.291 16.52C148.004 16.76 148.584 17.0667 149.031 17.44C149.471 17.8133 149.807 18.21 150.041 18.63H150.671V9.50001H155.081V34H150.741V31.9H150.111C149.717 32.5533 149.104 33.1467 148.271 33.68C147.444 34.22 146.237 34.49 144.651 34.49ZM145.981 30.64C147.334 30.64 148.467 30.2033 149.381 29.33C150.287 28.4567 150.741 27.1767 150.741 25.49V25.14C150.741 23.46 150.291 22.1833 149.391 21.31C148.497 20.4367 147.361 20 145.981 20C144.627 20 143.497 20.4367 142.591 21.31C141.677 22.1833 141.221 23.46 141.221 25.14V25.49C141.221 27.1767 141.677 28.4567 142.591 29.33C143.497 30.2033 144.627 30.64 145.981 30.64ZM164.391 34H159.981V16.64H164.321V18.6H164.951C165.211 17.9 165.637 17.3867 166.231 17.06C166.824 16.7333 167.517 16.57 168.311 16.57H170.411V20.49H168.241C167.121 20.49 166.201 20.7867 165.481 21.38C164.754 21.9733 164.391 22.89 164.391 24.13V34ZM181.471 34.49C179.744 34.49 178.191 34.14 176.811 33.44C175.437 32.74 174.354 31.7233 173.561 30.39C172.767 29.0633 172.371 27.4667 172.371 25.6V25.04C172.371 23.1733 172.767 21.5733 173.561 20.24C174.354 18.9133 175.437 17.9 176.811 17.2C178.191 16.5 179.744 16.15 181.471 16.15C183.197 16.15 184.751 16.5 186.131 17.2C187.504 17.9 188.587 18.9133 189.381 20.24C190.174 21.5733 190.571 23.1733 190.571 25.04V25.6C190.571 27.4667 190.174 29.0633 189.381 30.39C188.587 31.7233 187.504 32.74 186.131 33.44C184.751 34.14 183.197 34.49 181.471 34.49ZM181.471 30.57C182.824 30.57 183.944 30.1333 184.831 29.26C185.717 28.3867 186.161 27.13 186.161 25.49V25.14C186.161 23.5067 185.724 22.2533 184.851 21.38C183.971 20.5067 182.844 20.07 181.471 20.07C180.117 20.07 178.997 20.5067 178.111 21.38C177.224 22.2533 176.781 23.5067 176.781 25.14V25.49C176.781 27.13 177.224 28.3867 178.111 29.26C178.997 30.1333 180.117 30.57 181.471 30.57ZM199.041 34H194.631V16.64H198.971V18.53H199.601C199.907 17.9433 200.411 17.4367 201.111 17.01C201.811 16.5767 202.731 16.36 203.871 16.36C205.111 16.36 206.101 16.6 206.841 17.08C207.594 17.5533 208.167 18.1767 208.561 18.95H209.191C209.584 18.2033 210.144 17.5833 210.871 17.09C211.597 16.6033 212.624 16.36 213.951 16.36C215.024 16.36 215.997 16.5867 216.871 17.04C217.751 17.4933 218.451 18.1833 218.971 19.11C219.497 20.03 219.761 21.19 219.761 22.59V34H215.351V22.9C215.351 21.9467 215.107 21.23 214.621 20.75C214.127 20.27 213.437 20.03 212.551 20.03C211.551 20.03 210.774 20.3533 210.221 21C209.674 21.64 209.401 22.5533 209.401 23.74V34H204.991V22.9C204.991 21.9467 204.744 21.23 204.251 20.75C203.764 20.27 203.077 20.03 202.191 20.03C201.191 20.03 200.414 20.3533 199.861 21C199.314 21.64 199.041 22.5533 199.041 23.74V34ZM229.911 34.49C228.677 34.49 227.571 34.2733 226.591 33.84C225.611 33.4133 224.834 32.7833 224.261 31.95C223.687 31.1233 223.401 30.1167 223.401 28.93C223.401 27.7367 223.687 26.7367 224.261 25.93C224.834 25.1233 225.627 24.5167 226.641 24.11C227.654 23.7033 228.814 23.5 230.121 23.5H234.881V22.52C234.881 21.7 234.624 21.03 234.111 20.51C233.597 19.9833 232.781 19.72 231.661 19.72C230.567 19.72 229.751 19.97 229.211 20.47C228.677 20.97 228.327 21.6167 228.161 22.41L224.101 21.05C224.381 20.1633 224.831 19.3533 225.451 18.62C226.071 17.88 226.897 17.2833 227.931 16.83C228.971 16.3767 230.237 16.15 231.731 16.15C234.017 16.15 235.827 16.72 237.161 17.86C238.487 19.0067 239.151 20.6633 239.151 22.83V29.31C239.151 30.01 239.477 30.36 240.131 30.36H241.531V34H238.591C237.731 34 237.021 33.79 236.461 33.37C235.901 32.95 235.621 32.39 235.621 31.69V31.66H234.951C234.857 31.9333 234.647 32.3 234.321 32.76C233.994 33.2133 233.481 33.6133 232.781 33.96C232.081 34.3133 231.124 34.49 229.911 34.49ZM230.681 30.92C231.921 30.92 232.931 30.5767 233.711 29.89C234.491 29.2033 234.881 28.2867 234.881 27.14V26.79H230.441C229.621 26.79 228.977 26.9633 228.511 27.31C228.044 27.6633 227.811 28.1567 227.811 28.79C227.811 29.4167 228.057 29.9267 228.551 30.32C229.037 30.72 229.747 30.92 230.681 30.92Z" fill="white"/>
</svg>
