<svg width="1368" height="531" viewBox="0 0 1368 531" fill="none" xmlns="http://www.w3.org/2000/svg">
<path d="M403.008 96.3953C370.469 96.3953 317.133 98.7948 272.905 112.083C249.087 119.24 237.003 132.716 232.767 139.969C228.802 146.759 229.695 159.329 233.912 173.854C237.392 185.836 251.473 193.286 275.541 214.373C361.304 289.513 378.722 295.122 386.593 300.557C390.147 303.012 390.865 307.193 390.283 313.246C389.702 319.299 387.302 327.698 380.667 333.824C366 347.366 329.313 352.057 253.382 360.528C200.448 366.434 117.461 366.6 71.8153 367.236C26.1692 367.872 20.1703 366.672 15.2803 363.055C10.3903 359.437 6.79096 353.439 5.53665 347.349C3.09791 335.508 15.1167 312.283 41.0392 268.836C57.3815 241.446 84.9583 206.193 126.151 163.056C167.343 119.918 222.533 70.7273 252.764 44.1868C286.219 14.8148 292.702 9.17507 293.938 5.52121C294.311 4.41793 287.975 9.066 284.903 12.7199C281.831 16.3737 280.631 19.9731 271.615 74.6175C262.598 129.262 245.801 234.842 237.148 294.631C226.962 365.013 227.296 387.141 225.478 413.1C224.86 447.457 223.66 473.234 221.842 488.922C221.224 498.612 221.224 511.809 221.224 525.407" stroke="white" stroke-width="10" stroke-linecap="round"/>
<path d="M421.187 307.265C417.588 301.23 400.682 293.959 378.849 293.922C361.339 293.893 354.581 320.499 349.109 335.642C347.211 340.895 352.036 342.386 355.69 341.804C373.277 339.004 379.958 318.209 384.194 314.555C393.397 306.616 393.301 336.314 396.919 341.168C406.057 353.429 430.785 319.481 439.947 303.084C449.608 285.795 456.308 268.582 458.744 250.985C460.547 237.955 464.815 222.517 464.815 218.791C464.815 147.334 444.237 358.092 440.601 366C434.306 379.692 447.8 334.024 455.09 318.227C459.038 309.67 468.414 306.066 475.668 305.447C479.354 305.133 482.921 308.429 485.375 311.465C497.552 326.528 489.065 350.857 484.848 358.11C482.466 362.207 477.031 365.364 472.159 367.218C467.287 369.072 462.488 369.072 460.016 367.272C457.544 365.473 457.544 361.873 459.943 359.419C465.587 353.647 476.886 353.33 484.157 353.311C486.897 353.304 486.629 358.092 488.429 360.546C490.229 363 493.828 364.2 497.482 363.618C515.069 360.819 524.15 336.424 532.639 323.662C543.388 307.504 562.942 326.644 568.396 330.861C574.751 335.776 567.851 348.421 562.415 356.293C559.961 359.847 555.78 360.565 553.926 358.783C552.072 357.002 552.072 352.202 553.871 349.13C561.436 336.217 585.884 331.552 611.37 318.227C627.531 309.777 624.785 289.16 627.803 254.166C636.455 153.84 616.314 115.846 615.696 110.956C612.444 85.2223 624.749 184.524 630.203 253.421C635.83 324.518 633.257 371.399 635.074 394.34C639.107 445.229 632.057 457.492 631.457 462.964C630.066 475.654 632.057 411.755 635.074 374.071C639.92 313.566 621.186 283.088 618.132 272.799C616.902 268.653 623.477 266.109 697.936 260.674C772.394 255.239 916.368 246.84 1021.13 237.115C1125.89 227.389 1187.08 216.591 1222.8 209.829C1258.52 203.066 1266.92 200.667 1269.45 199.431C1261.07 201.794 1246.56 211.501 1233.85 215.137C1228.35 216.373 1224.75 216.373 1221.04 216.373" stroke="white" stroke-width="10" stroke-linecap="round"/>
<path d="M759.306 299.994C755.707 310.865 738.801 332.57 732.638 350.239C731.56 353.331 737.419 355.693 742.273 356.929C752.858 359.625 770.104 353.366 787.664 344.295C798.396 338.751 799.299 329.116 801.698 322.463C803.016 318.809 808.897 317.009 844.363 315.173C879.829 313.337 945.817 312.137 987.609 310.319C1029.4 308.502 1045 306.102 1080.03 303.066C1115.06 300.03 1169.05 296.431 1216.66 290.378C1264.27 284.324 1303.86 275.926 1326.06 270.999C1348.25 266.073 1351.85 264.873 1362.83 260.001" stroke="white" stroke-width="10" stroke-linecap="round"/>
</svg>
