
      <svg data-logo="logo" xmlns="http://www.w3.org/2000/svg" viewBox="0 0 36 41">
        <g id="logogram" transform="translate(0, 0) rotate(0) "><path fill-rule="evenodd" clip-rule="evenodd" d="M19.3333 7.20618C19.3333 6.30334 19.1232 5.41289 18.7193 4.60536C18.3703 3.90734 18.1654 3.14621 18.1168 2.36731L18 0.499969L17.8833 2.36724C17.8346 3.14615 17.6297 3.9073 17.2807 4.60534C16.8769 5.41289 16.6667 6.30335 16.6667 7.20621V33.7937C16.6667 34.6966 16.8769 35.5871 17.2807 36.3946C17.6297 37.0926 17.8346 37.8538 17.8833 38.6327L18 40.5L18.1168 38.6326C18.1654 37.8537 18.3703 37.0926 18.7193 36.3946C19.1232 35.5871 19.3333 34.6966 19.3333 33.7937V7.20618ZM12.0527 7.27203C12.4565 8.07956 12.6667 8.97005 12.6667 9.87289V31.1271C12.6667 32.03 12.4565 32.9204 12.0527 33.728C11.7037 34.426 11.4987 35.1871 11.45 35.966L11.3333 37.8333L11.2167 35.966C11.1679 35.1871 10.963 34.426 10.614 33.728C10.2102 32.9204 10 32.03 10 31.1271V9.87289C10 8.97005 10.2102 8.07956 10.614 7.27203C10.963 6.57399 11.1679 5.81286 11.2167 5.03395L11.3333 3.16664L11.45 5.03395C11.4987 5.81286 11.7037 6.57399 12.0527 7.27203ZM9.33333 12.5396C9.33333 11.6366 9.12317 10.7462 8.71933 9.93872C8.37033 9.24064 8.16539 8.47951 8.11671 7.7006L8 5.83329L7.88329 7.7006C7.83461 8.47951 7.62966 9.24064 7.28064 9.93872C6.87687 10.7462 6.66667 11.6366 6.66667 12.5396V28.4604C6.66667 29.3632 6.87687 30.2537 7.28064 31.0612C7.62966 31.7593 7.83461 32.5204 7.88329 33.2993L8 35.1666L8.11671 33.2993C8.16539 32.5204 8.37033 31.7593 8.71933 31.0612C9.12317 30.2537 9.33333 29.3632 9.33333 28.4604V12.5396ZM5.38602 15.272C5.78979 16.0796 6 16.97 6 17.8729V23.1271C6 24.0299 5.78979 24.9204 5.38602 25.7279C5.03701 26.426 4.83206 27.1871 4.78337 27.966L4.66667 29.8333L4.54996 27.966C4.50127 27.1871 4.29633 26.426 3.94731 25.7279C3.54354 24.9204 3.33333 24.0299 3.33333 23.1271V17.8729C3.33333 16.97 3.54354 16.0796 3.94731 15.272C4.29633 14.574 4.50127 13.8128 4.54996 13.034L4.66667 11.1666L4.78337 13.034C4.83206 13.8128 5.03701 14.574 5.38602 15.272ZM2.66653 20.5L2.66667 20.5396V20.4604L2.66653 20.5ZM0 20.5396L0.000134518 20.5C0.00618271 21.3893 0.216106 22.2656 0.613976 23.0612C0.962992 23.7593 1.16794 24.5204 1.21662 25.2993L1.33333 27.1666L1.45004 25.2993C1.49872 24.5204 1.70367 23.7593 2.05269 23.0612C2.45056 22.2656 2.66048 21.3893 2.66653 20.5C2.66048 19.6106 2.45056 18.7344 2.05269 17.9387C1.70367 17.2406 1.49872 16.4796 1.45004 15.7006L1.33333 13.8333L1.21662 15.7006C1.16794 16.4796 0.962992 17.2406 0.613976 17.9387C0.216106 18.7344 0.00618272 19.6106 0.000134518 20.5L0 20.4604V20.5396ZM15.386 4.60535C15.7898 5.41289 16 6.30334 16 7.20619V33.7937C16 34.6966 15.7898 35.5871 15.386 36.3946C15.037 37.0926 14.8321 37.8537 14.7833 38.6326L14.6667 40.5L14.55 38.6326C14.5012 37.8537 14.2963 37.0926 13.9473 36.3946C13.5435 35.5871 13.3333 34.6966 13.3333 33.7937V7.20619C13.3333 6.30334 13.5435 5.41289 13.9473 4.60535C14.2963 3.90732 14.5012 3.14618 14.55 2.36728L14.6667 0.499969L14.7833 2.36728C14.8321 3.14618 15.037 3.90732 15.386 4.60535ZM22.0527 4.60535C22.4565 5.41289 22.6667 6.30334 22.6667 7.20619V33.7937C22.6667 34.6966 22.4565 35.5871 22.0527 36.3946C21.7037 37.0926 21.4987 37.8537 21.45 38.6326L21.3333 40.5L21.2167 38.6326C21.1679 37.8537 20.963 37.0926 20.614 36.3946C20.2102 35.5871 20 34.6966 20 33.7937V7.20619C20 6.30334 20.2102 5.41289 20.614 4.60535C20.963 3.90732 21.1679 3.14618 21.2167 2.36728L21.3333 0.499969L21.45 2.36728C21.4987 3.14618 21.7037 3.90732 22.0527 4.60535ZM26 9.87289C26 8.97005 25.7898 8.07956 25.386 7.27203C25.037 6.57399 24.8321 5.81286 24.7833 5.03395L24.6667 3.16664L24.55 5.03395C24.5012 5.81286 24.2963 6.57399 23.9473 7.27203C23.5435 8.07956 23.3333 8.97005 23.3333 9.87289V31.1271C23.3333 32.03 23.5435 32.9204 23.9473 33.728C24.2963 34.426 24.5012 35.1871 24.55 35.966L24.6667 37.8333L24.7833 35.966C24.8321 35.1871 25.037 34.426 25.386 33.728C25.7898 32.9204 26 32.03 26 31.1271V9.87289ZM28.7193 9.93872C29.1232 10.7462 29.3333 11.6366 29.3333 12.5396V28.4604C29.3333 29.3632 29.1232 30.2537 28.7193 31.0612C28.3703 31.7593 28.1654 32.5204 28.1167 33.2993L28 35.1666L27.8833 33.2993C27.8346 32.5204 27.6297 31.7593 27.2807 31.0612C26.8769 30.2537 26.6667 29.3632 26.6667 28.4604V12.5396C26.6667 11.6366 26.8769 10.7462 27.2807 9.93872C27.6297 9.24064 27.8346 8.47951 27.8833 7.7006L28 5.83329L28.1167 7.7006C28.1654 8.47951 28.3703 9.24064 28.7193 9.93872ZM32.6667 17.8729C32.6667 16.97 32.4565 16.0796 32.0527 15.272C31.7037 14.574 31.4988 13.8128 31.45 13.034L31.3333 11.1666L31.2167 13.034C31.1679 13.8128 30.963 14.574 30.614 15.272C30.2103 16.0796 30 16.97 30 17.8729V23.1271C30 24.0299 30.2103 24.9204 30.614 25.7279C30.963 26.426 31.1679 27.1871 31.2167 27.966L31.3333 29.8333L31.45 27.966C31.4988 27.1871 31.7037 26.426 32.0527 25.7279C32.4565 24.9204 32.6667 24.0299 32.6667 23.1271V17.8729ZM35.9998 20.5C35.9999 20.5131 36 20.5263 36 20.5396V20.4604C36 20.4736 35.9999 20.4868 35.9998 20.5ZM33.3335 20.5C33.3395 21.3893 33.5494 22.2656 33.9473 23.0612C34.2963 23.7593 34.5012 24.5204 34.55 25.2993L34.6667 27.1666L34.7833 25.2993C34.8321 24.5204 35.037 23.7593 35.386 23.0612C35.7839 22.2656 35.9938 21.3893 35.9998 20.5C35.9938 19.6106 35.7839 18.7344 35.386 17.9387C35.037 17.2406 34.8321 16.4796 34.7833 15.7006L34.6667 13.8333L34.55 15.7006C34.5012 16.4796 34.2963 17.2406 33.9473 17.9387C33.5494 18.7344 33.3395 19.6106 33.3335 20.5ZM33.3335 20.5C33.3334 20.4868 33.3333 20.4736 33.3333 20.4604V20.5396C33.3333 20.5263 33.3334 20.5131 33.3335 20.5Z" fill="white"/></g>
        <g id="logotype" transform="translate(36, 20.5)"></g>
        
      </svg>
    